<svg width="478" height="449" viewBox="0 0 478 449" fill="none" xmlns="http://www.w3.org/2000/svg">
<path d="M457.036 148.687C468.513 176.395 474.6 206.029 474.981 236H375.326C374.996 219.104 371.861 202.368 365.355 186.662C358.482 170.069 348.408 154.992 335.708 142.292C323.008 129.592 307.931 119.518 291.338 112.645C274.745 105.772 256.96 102.234 239 102.234C221.04 102.234 203.255 105.772 186.662 112.645C170.069 119.518 154.992 129.592 142.292 142.292C129.592 154.992 119.518 170.069 112.645 186.662C106.126 202.399 103.32 219.143 103.026 236H3.01907C3.40006 206.029 9.48713 176.395 20.9644 148.687C32.8245 120.054 50.2082 94.0374 72.1228 72.1228C94.0374 50.2082 120.054 32.8245 148.687 20.9644C177.32 9.10432 208.008 3 239 3C269.992 3 300.68 9.10432 329.313 20.9644C357.946 32.8245 383.963 50.2082 405.877 72.1228C427.792 94.0374 445.175 120.054 457.036 148.687Z" stroke="white" stroke-width="6"/>
<path d="M103 369.5L103 242L3 242L3.00001 397L75.5 397C90.6878 397 103 384.688 103 369.5Z" stroke="white" stroke-width="6"/>
<path d="M413.5 397H341V242H441V369.5C441 384.688 428.688 397 413.5 397Z" stroke="white" stroke-width="6"/>
</svg>
