<svg width="293" height="220" viewBox="0 0 293 220" fill="none" xmlns="http://www.w3.org/2000/svg">
<path d="M2.14648e-06 40C1.5772e-06 87.739 15.4348 133.523 42.9089 167.279C96.2219 167.279 107.646 220 146.5 220C185.354 220 222.617 201.036 250.091 167.279C277.565 133.523 293 87.739 293 40L146.5 40L2.14648e-06 40Z" fill="#FF6347"/>
<path d="M188 39C188 49.8739 183.733 60.3024 176.138 67.9914C168.543 75.6804 158.241 80 147.5 80C136.759 80 126.457 75.6804 118.862 67.9914C111.267 60.3024 107 49.8739 107 39L147.5 39H188Z" fill="black"/>
</svg>
