<svg width="311" height="414" viewBox="0 0 311 414" fill="none" xmlns="http://www.w3.org/2000/svg">
<path d="M13 292.379L128.778 400.982C164.501 347.431 236.099 128.017 13 292.379Z" stroke="#FF6347" stroke-width="16"/>
<path d="M65.5953 298.184L119.625 348.866C136.232 323.943 169.433 221.776 65.5953 298.184Z" stroke="#FF6347" stroke-width="16"/>
<path d="M150.515 60.0385L129 28.8513L150.527 14L155.287 20.8998L142.592 29.6583L145.829 34.3502L158.524 25.5917L162.904 31.9396L150.208 40.698L153.825 45.9419L166.521 37.1834L172.043 45.1872L150.515 60.0385Z" stroke="#FF6347" stroke-width="3"/>
<path d="M280.333 192.825L266 144.825H276.667L283.667 169.676L294.667 146.867L308 149.25L280.333 192.825Z" stroke="#FF6347" stroke-width="3"/>
<path d="M106.004 15.7984C106.132 22.3433 113.278 58.779 140.831 152.163L117.068 169.594L107.998 117.096L90.1485 117.447L109.809 209.022L75 224.325C68.0687 174.611 59.0801 63.1498 60.0159 38.132C60.9518 13.1142 91.0643 12.8188 106.004 15.7984Z" stroke="white" stroke-width="3"/>
<path d="M190.808 273.885C190.636 265.122 181.068 216.338 144.178 91.3061L175.995 67.9665L188.138 138.257L212.037 137.787L185.714 15.1765L226.107 2.42678C235.387 68.9885 253.635 210.486 252.382 243.983C251.129 277.479 210.811 277.875 190.808 273.885Z" stroke="white" stroke-width="3"/>
<path d="M87.1178 103.825H104.628C104.628 94.7661 102.293 85.4151 98.3423 81.9085C94.3913 78.4019 86.6689 77.2331 82.6281 81.9085L87.1178 103.825Z" stroke="white" stroke-width="3"/>
<path d="M215.71 153.825H192.628C192.628 166.145 195.706 178.862 200.914 183.631C206.122 188.4 216.302 189.989 221.628 183.631L215.71 153.825Z" stroke="white" stroke-width="3"/>
</svg>
