<svg width="294" height="294" viewBox="0 0 294 294" fill="none" xmlns="http://www.w3.org/2000/svg">
<path d="M57 212C31.3333 188 -43.9998 24 40.0001 3.00002C71.3335 -3.66665 121.6 4.6 132 95L147 212H116C108.667 163 88 76.9 84 66.5C79 53.5 40.0001 18.2552 40.0001 73C40.0001 121 77.0001 183.333 100 212H57Z" stroke="white"/>
<path d="M93 120.5C93 123.948 90.0754 127.193 86.0385 129.617C82.0311 132.024 77.1191 133.5 73.5 133.5C69.8866 133.5 65.356 132.028 61.7299 129.629C58.088 127.22 55.5 123.976 55.5 120.5C55.5 118.754 56.1491 116.816 57.2749 114.871C58.398 112.93 59.9782 111.014 61.795 109.32C65.451 105.911 69.9582 103.5 73.5 103.5C75.2619 103.5 77.3676 104.097 79.5557 105.137C81.7374 106.175 83.9684 107.639 85.9729 109.336C87.9781 111.033 89.7437 112.952 91.0042 114.893C92.2687 116.84 93 118.77 93 120.5Z" stroke="white"/>
<path d="M237 212C262.667 188 338 24 254 3.00002C222.667 -3.66665 172.4 4.6 162 95L147 212H178C185.333 163 206 76.9 210 66.5C215 53.5 254 18.2552 254 73C254 121 217 183.333 194 212H237Z" stroke="white"/>
<path d="M201 120.5C201 123.948 203.925 127.193 207.962 129.617C211.969 132.024 216.881 133.5 220.5 133.5C224.114 133.5 228.644 132.028 232.27 129.629C235.912 127.22 238.5 123.976 238.5 120.5C238.5 118.754 237.851 116.816 236.725 114.871C235.602 112.93 234.022 111.014 232.205 109.32C228.549 105.911 224.042 103.5 220.5 103.5C218.738 103.5 216.633 104.097 214.444 105.137C212.263 106.175 210.032 107.639 208.027 109.336C206.022 111.033 204.256 112.952 202.996 114.893C201.731 116.84 201 118.77 201 120.5Z" stroke="white"/>
<path d="M60 225V285C84 281 163 244 60 225Z" stroke="#ff6347"/>
<path d="M72 241V269C83.1645 267.133 119.914 249.867 72 241Z" stroke="#ff6347"/>
<path d="M125 283.5V227H164V239.5H141V248H164V259.5H141V269H164V283.5H125Z" stroke="#ff6347"/>
<path d="M200 292.5L178.5 222H194.5L205 258.5L221.5 225L241.5 228.5L200 292.5Z" stroke="#ff6347"/>
</svg>
